<svg width="100" height="100" viewBox="0 0 100 100" fill="none" xmlns="http://www.w3.org/2000/svg">
<path d="M90.625 88.2812H80.4688V11.7188H84.375C84.9966 11.7188 85.5927 11.4718 86.0323 11.0323C86.4718 10.5927 86.7188 9.9966 86.7188 9.375C86.7188 8.7534 86.4718 8.15726 86.0323 7.71772C85.5927 7.27818 84.9966 7.03125 84.375 7.03125H15.625C15.0034 7.03125 14.4073 7.27818 13.9677 7.71772C13.5282 8.15726 13.2812 8.7534 13.2812 9.375C13.2812 9.9966 13.5282 10.5927 13.9677 11.0323C14.4073 11.4718 15.0034 11.7188 15.625 11.7188H19.5312V88.2812H9.375C8.7534 88.2812 8.15726 88.5282 7.71772 88.9677C7.27818 89.4073 7.03125 90.0034 7.03125 90.625C7.03125 91.2466 7.27818 91.8427 7.71772 92.2823C8.15726 92.7218 8.7534 92.9688 9.375 92.9688H90.625C91.2466 92.9688 91.8427 92.7218 92.2823 92.2823C92.7218 91.8427 92.9688 91.2466 92.9688 90.625C92.9688 90.0034 92.7218 89.4073 92.2823 88.9677C91.8427 88.5282 91.2466 88.2812 90.625 88.2812ZM24.2188 11.7188H75.7812V88.2812H61.7188V71.875C61.7188 71.2534 61.4718 70.6573 61.0323 70.2177C60.5927 69.7782 59.9966 69.5312 59.375 69.5312H40.625C40.0034 69.5312 39.4073 69.7782 38.9677 70.2177C38.5282 70.6573 38.2812 71.2534 38.2812 71.875V88.2812H24.2188V11.7188ZM57.0312 88.2812H42.9688V74.2188H57.0312V88.2812ZM35.1562 25C35.1562 24.3784 35.4032 23.7823 35.8427 23.3427C36.2823 22.9032 36.8784 22.6562 37.5 22.6562H43.75C44.3716 22.6562 44.9677 22.9032 45.4073 23.3427C45.8468 23.7823 46.0938 24.3784 46.0938 25C46.0938 25.6216 45.8468 26.2177 45.4073 26.6573C44.9677 27.0968 44.3716 27.3438 43.75 27.3438H37.5C36.8784 27.3438 36.2823 27.0968 35.8427 26.6573C35.4032 26.2177 35.1562 25.6216 35.1562 25ZM53.9062 25C53.9062 24.3784 54.1532 23.7823 54.5927 23.3427C55.0323 22.9032 55.6284 22.6562 56.25 22.6562H62.5C63.1216 22.6562 63.7177 22.9032 64.1573 23.3427C64.5968 23.7823 64.8438 24.3784 64.8438 25C64.8438 25.6216 64.5968 26.2177 64.1573 26.6573C63.7177 27.0968 63.1216 27.3438 62.5 27.3438H56.25C55.6284 27.3438 55.0323 27.0968 54.5927 26.6573C54.1532 26.2177 53.9062 25.6216 53.9062 25ZM35.1562 40.625C35.1562 40.0034 35.4032 39.4073 35.8427 38.9677C36.2823 38.5282 36.8784 38.2812 37.5 38.2812H43.75C44.3716 38.2812 44.9677 38.5282 45.4073 38.9677C45.8468 39.4073 46.0938 40.0034 46.0938 40.625C46.0938 41.2466 45.8468 41.8427 45.4073 42.2823C44.9677 42.7218 44.3716 42.9688 43.75 42.9688H37.5C36.8784 42.9688 36.2823 42.7218 35.8427 42.2823C35.4032 41.8427 35.1562 41.2466 35.1562 40.625ZM53.9062 40.625C53.9062 40.0034 54.1532 39.4073 54.5927 38.9677C55.0323 38.5282 55.6284 38.2812 56.25 38.2812H62.5C63.1216 38.2812 63.7177 38.5282 64.1573 38.9677C64.5968 39.4073 64.8438 40.0034 64.8438 40.625C64.8438 41.2466 64.5968 41.8427 64.1573 42.2823C63.7177 42.7218 63.1216 42.9688 62.5 42.9688H56.25C55.6284 42.9688 55.0323 42.7218 54.5927 42.2823C54.1532 41.8427 53.9062 41.2466 53.9062 40.625ZM37.5 58.5938C36.8784 58.5938 36.2823 58.3468 35.8427 57.9073C35.4032 57.4677 35.1562 56.8716 35.1562 56.25C35.1562 55.6284 35.4032 55.0323 35.8427 54.5927C36.2823 54.1532 36.8784 53.9062 37.5 53.9062H43.75C44.3716 53.9062 44.9677 54.1532 45.4073 54.5927C45.8468 55.0323 46.0938 55.6284 46.0938 56.25C46.0938 56.8716 45.8468 57.4677 45.4073 57.9073C44.9677 58.3468 44.3716 58.5938 43.75 58.5938H37.5ZM53.9062 56.25C53.9062 55.6284 54.1532 55.0323 54.5927 54.5927C55.0323 54.1532 55.6284 53.9062 56.25 53.9062H62.5C63.1216 53.9062 63.7177 54.1532 64.1573 54.5927C64.5968 55.0323 64.8438 55.6284 64.8438 56.25C64.8438 56.8716 64.5968 57.4677 64.1573 57.9073C63.7177 58.3468 63.1216 58.5938 62.5 58.5938H56.25C55.6284 58.5938 55.0323 58.3468 54.5927 57.9073C54.1532 57.4677 53.9062 56.8716 53.9062 56.25Z" fill="#F80808"/>
</svg>
