<svg width="99" height="100" viewBox="0 0 99 100" fill="none" xmlns="http://www.w3.org/2000/svg">
<path d="M23.4795 79.1667V41.4417L10.7415 51.0417L8.25 47.7417L49.5 16.6667L67.4273 30.0959V20.8334H75.2029V35.9959L90.8284 47.7417L88.341 51.0417L75.5989 41.4417V79.1667H54.5779V57.375H44.4221V79.1667H23.4795ZM27.6045 75H40.3013V53.2084H58.707V75H71.478V38.375L49.5 21.9L27.6045 38.375V75ZM42.042 41.6917H56.958C56.958 39.7361 56.2127 38.1264 54.7222 36.8625C53.229 35.5986 51.4883 34.9667 49.5 34.9667C47.5117 34.9667 45.7724 35.5959 44.2819 36.8542C42.7914 38.1125 42.0448 39.7278 42.042 41.6917ZM40.3013 75V53.2084H58.707H40.2971L40.3013 75Z" fill="#F80808"/>
</svg>
