<svg width="132" height="31" viewBox="0 0 132 31" fill="none" xmlns="http://www.w3.org/2000/svg">
<path d="M13.6477 7.42045C13.5568 6.50379 13.1667 5.79167 12.4773 5.28409C11.7879 4.77651 10.8523 4.52273 9.67045 4.52273C8.86742 4.52273 8.18939 4.63636 7.63636 4.86364C7.08333 5.08333 6.65909 5.39015 6.36364 5.78409C6.07576 6.17803 5.93182 6.625 5.93182 7.125C5.91667 7.54167 6.00379 7.9053 6.19318 8.21591C6.39015 8.52652 6.65909 8.79545 7 9.02273C7.34091 9.24242 7.73485 9.43561 8.18182 9.60227C8.62879 9.76136 9.10606 9.89773 9.61364 10.0114L11.7045 10.5114C12.7197 10.7386 13.6515 11.0417 14.5 11.4205C15.3485 11.7992 16.0833 12.2652 16.7045 12.8182C17.3258 13.3712 17.8068 14.0227 18.1477 14.7727C18.4962 15.5227 18.6742 16.3826 18.6818 17.3523C18.6742 18.7765 18.3106 20.0114 17.5909 21.0568C16.8788 22.0947 15.8485 22.9015 14.5 23.4773C13.1591 24.0455 11.5417 24.3295 9.64773 24.3295C7.76894 24.3295 6.13258 24.0417 4.73864 23.4659C3.35227 22.8902 2.26894 22.0379 1.48864 20.9091C0.715909 19.7727 0.310606 18.3674 0.272727 16.6932H5.03409C5.08712 17.4735 5.31061 18.125 5.70455 18.6477C6.10606 19.1629 6.64015 19.553 7.30682 19.8182C7.98106 20.0758 8.74242 20.2045 9.59091 20.2045C10.4242 20.2045 11.1477 20.0833 11.7614 19.8409C12.3826 19.5985 12.8636 19.2614 13.2045 18.8295C13.5455 18.3977 13.7159 17.9015 13.7159 17.3409C13.7159 16.8182 13.5606 16.3788 13.25 16.0227C12.947 15.6667 12.5 15.3636 11.9091 15.1136C11.3258 14.8636 10.6098 14.6364 9.76136 14.4318L7.22727 13.7955C5.26515 13.3182 3.71591 12.572 2.57955 11.5568C1.44318 10.5417 0.878788 9.17424 0.886364 7.45454C0.878788 6.04545 1.25379 4.81439 2.01136 3.76136C2.77652 2.70833 3.82576 1.88636 5.15909 1.29545C6.49242 0.704545 8.00758 0.40909 9.70455 0.40909C11.4318 0.40909 12.9394 0.704545 14.2273 1.29545C15.5227 1.88636 16.5303 2.70833 17.25 3.76136C17.9697 4.81439 18.3409 6.03409 18.3636 7.42045H13.6477ZM31.1847 6.54545V10.1818H20.6733V6.54545H31.1847ZM23.0597 2.36364H27.9006V18.6364C27.9006 19.0833 27.9688 19.4318 28.1051 19.6818C28.2415 19.9242 28.4309 20.0947 28.6733 20.1932C28.9233 20.2917 29.2112 20.3409 29.5369 20.3409C29.7642 20.3409 29.9915 20.322 30.2188 20.2841C30.446 20.2386 30.6203 20.2045 30.7415 20.1818L31.5028 23.7841C31.2604 23.8598 30.9195 23.947 30.4801 24.0455C30.0407 24.1515 29.5066 24.2159 28.8778 24.2386C27.7112 24.2841 26.6884 24.1288 25.8097 23.7727C24.9384 23.4167 24.2604 22.8636 23.7756 22.1136C23.2907 21.3636 23.0521 20.4167 23.0597 19.2727V2.36364ZM39.3153 24.3295C38.2017 24.3295 37.2093 24.1364 36.3381 23.75C35.4669 23.3561 34.7775 22.7765 34.2699 22.0114C33.7699 21.2386 33.5199 20.2765 33.5199 19.125C33.5199 18.1553 33.6979 17.3409 34.054 16.6818C34.41 16.0227 34.8949 15.4924 35.5085 15.0909C36.1222 14.6894 36.8191 14.3864 37.5994 14.1818C38.3873 13.9773 39.2131 13.8333 40.0767 13.75C41.0919 13.6439 41.91 13.5455 42.5312 13.4545C43.1525 13.3561 43.6032 13.2121 43.8835 13.0227C44.1638 12.8333 44.304 12.553 44.304 12.1818V12.1136C44.304 11.3939 44.0767 10.8371 43.6222 10.4432C43.1752 10.0492 42.5388 9.85227 41.7131 9.85227C40.8419 9.85227 40.1487 10.0455 39.6335 10.4318C39.1184 10.8106 38.7775 11.2879 38.6108 11.8636L34.1335 11.5C34.3608 10.4394 34.8078 9.52273 35.4744 8.75C36.1411 7.9697 37.0009 7.37121 38.054 6.95454C39.1146 6.5303 40.3419 6.31818 41.7358 6.31818C42.7055 6.31818 43.6335 6.43182 44.5199 6.65909C45.4138 6.88636 46.2055 7.23864 46.8949 7.71591C47.5919 8.19318 48.1411 8.80682 48.5426 9.55682C48.9441 10.2992 49.1449 11.1894 49.1449 12.2273V24H44.554V21.5795H44.4176C44.1373 22.125 43.7623 22.6061 43.2926 23.0227C42.8229 23.4318 42.2585 23.7538 41.5994 23.9886C40.9403 24.2159 40.179 24.3295 39.3153 24.3295ZM40.7017 20.9886C41.4138 20.9886 42.0426 20.8485 42.5881 20.5682C43.1335 20.2803 43.5616 19.8939 43.8722 19.4091C44.1828 18.9242 44.3381 18.375 44.3381 17.7614V15.9091C44.1866 16.0076 43.9782 16.0985 43.7131 16.1818C43.4555 16.2576 43.1638 16.3295 42.8381 16.3977C42.5123 16.4583 42.1866 16.5152 41.8608 16.5682C41.535 16.6136 41.2396 16.6553 40.9744 16.6932C40.4063 16.7765 39.91 16.9091 39.4858 17.0909C39.0616 17.2727 38.732 17.5189 38.4972 17.8295C38.2623 18.1326 38.1449 18.5114 38.1449 18.9659C38.1449 19.625 38.3835 20.1288 38.8608 20.4773C39.3456 20.8182 39.9593 20.9886 40.7017 20.9886ZM55.2642 30.5455C54.6506 30.5455 54.0748 30.4962 53.5369 30.3977C53.0066 30.3068 52.5672 30.1894 52.2188 30.0455L53.3097 26.4318C53.8778 26.6061 54.3892 26.7008 54.8438 26.7159C55.3059 26.7311 55.7036 26.625 56.0369 26.3977C56.3778 26.1705 56.6544 25.7841 56.8665 25.2386L57.1506 24.5L50.8892 6.54545H55.9801L59.5938 19.3636H59.7756L63.4233 6.54545H68.5483L61.7642 25.8864C61.4384 26.8258 60.9953 27.6439 60.4347 28.3409C59.8816 29.0455 59.1809 29.5871 58.3324 29.9659C57.4839 30.3523 56.4612 30.5455 55.2642 30.5455ZM71.1165 24V0.727272H76.0369V10.3295H86.0256V0.727272H90.9347V24H86.0256V14.3864H76.0369V24H71.1165ZM106.094 16.5682V6.54545H110.935V24H106.287V20.8295H106.105C105.711 21.8523 105.056 22.6742 104.139 23.2955C103.23 23.9167 102.12 24.2273 100.81 24.2273C99.643 24.2273 98.6165 23.9621 97.7301 23.4318C96.8438 22.9015 96.1506 22.1477 95.6506 21.1705C95.1581 20.1932 94.9081 19.0227 94.9006 17.6591V6.54545H99.7415V16.7955C99.7491 17.8258 100.026 18.6402 100.571 19.2386C101.116 19.8371 101.848 20.1364 102.764 20.1364C103.348 20.1364 103.893 20.0038 104.401 19.7386C104.908 19.4659 105.317 19.0644 105.628 18.5341C105.946 18.0038 106.101 17.3485 106.094 16.5682ZM114.898 24V0.727272H119.739V9.47727H119.886C120.098 9.00758 120.405 8.5303 120.807 8.04545C121.216 7.55303 121.746 7.14394 122.398 6.81818C123.057 6.48485 123.875 6.31818 124.852 6.31818C126.125 6.31818 127.299 6.65152 128.375 7.31818C129.451 7.97727 130.311 8.97348 130.955 10.3068C131.598 11.6326 131.92 13.2955 131.92 15.2955C131.92 17.2424 131.606 18.8864 130.977 20.2273C130.356 21.5606 129.508 22.572 128.432 23.2614C127.364 23.9432 126.167 24.2841 124.841 24.2841C123.902 24.2841 123.102 24.1288 122.443 23.8182C121.792 23.5076 121.258 23.1174 120.841 22.6477C120.424 22.1705 120.106 21.6894 119.886 21.2045H119.67V24H114.898ZM119.636 15.2727C119.636 16.3106 119.78 17.2159 120.068 17.9886C120.356 18.7614 120.773 19.3636 121.318 19.7955C121.864 20.2197 122.527 20.4318 123.307 20.4318C124.095 20.4318 124.761 20.2159 125.307 19.7841C125.852 19.3447 126.265 18.7386 126.545 17.9659C126.833 17.1856 126.977 16.2879 126.977 15.2727C126.977 14.2652 126.837 13.3788 126.557 12.6136C126.277 11.8485 125.864 11.25 125.318 10.8182C124.773 10.3864 124.102 10.1705 123.307 10.1705C122.519 10.1705 121.852 10.3788 121.307 10.7955C120.769 11.2121 120.356 11.803 120.068 12.5682C119.78 13.3333 119.636 14.2348 119.636 15.2727Z" fill="#FF0808"/>
</svg>
