<svg width="100" height="100" viewBox="0 0 100 100" fill="none" xmlns="http://www.w3.org/2000/svg">
<g clip-path="url(#clip0_101_47)">
<path d="M3.33333 36.6667L1.4 33.9534L0 34.9534V36.6667H3.33333ZM50 3.33335L51.9333 0.62002C51.3688 0.218073 50.693 0.0020752 50 0.0020752C49.307 0.0020752 48.6312 0.218073 48.0667 0.62002L50 3.33335ZM96.6667 36.6667H100V34.9534L98.6 33.9534L96.6667 36.6667ZM16.6667 56.6667V53.3334H13.3333V56.6667H16.6667ZM43.3333 56.6667H46.6667V53.3334H43.3333V56.6667ZM6.66667 100V36.6667H0L0 100H6.66667ZM5.26667 39.38L51.9333 6.04669L48.0667 0.62002L1.4 33.9534L5.26667 39.38ZM48.0667 6.04669L94.7333 39.38L98.6 33.9534L51.9333 0.62002L48.0667 6.04669ZM93.3333 36.6667V100H100V36.6667H93.3333ZM20 100V56.6667H13.3333V100H20ZM16.6667 60H43.3333V53.3334H16.6667V60ZM40 56.6667V100H46.6667V56.6667H40ZM33.3333 80H43.3333V73.3334H33.3333V80ZM73.3333 53.3334V80H80V53.3334H73.3333ZM86.6667 13.3334V30H93.3333V13.3334H86.6667Z" fill="#F80808"/>
</g>
<defs>
<clipPath id="clip0_101_47">
<rect width="100" height="100" fill="white"/>
</clipPath>
</defs>
</svg>
