<svg xmlns="http://www.w3.org/2000/svg" height='130px' width='130px' viewBox="52 8 90 25">
  <defs>
    <style>.cls-1,.cls-4{fill:#005baa;}.cls-2,.cls-5{fill:#ed1c24;}.cls-3{fill:#009edb;}.cls-4,.cls-5{fill-rule:evenodd;}
    </style>
</defs>
    <path class="cls-4" d="M126.68,21.3l-6.18-8.86-.62-.57H126l4.13,6.69.33-.27,2.49-3.71a1.94,1.94,0,0,0-.34-2.71h5.75l-6.65,9.42v6.84l1.17,1.4H125.7l1-1.38c0-2.27-.08-4.58,0-6.85Zm-16.77-9.43a2.54,2.54,0,0,1,.7,1.51,2.08,2.08,0,0,1-.13,1l-4.59,13.32a5,5,0,0,1-1.31,1.74h5a2,2,0,0,1-.7-1.19,1.88,1.88,0,0,1,0-1l1-3.16h5.83l.91,2.44a2.8,2.8,0,0,1,.17.76,2.3,2.3,0,0,1-.93,2.19h7.85a7.2,7.2,0,0,1-1.87-2.28l-5.74-15.38Zm5,10h-4.17l2-5.76,2.15,5.76ZM94,11.88h8.75a4.8,4.8,0,0,1,4.79,4.79v.59A4.8,4.8,0,0,1,102.77,22l-2.19.07a4.48,4.48,0,0,0,2.27-4.69c-.17-1.48-.93-2.9-2.2-2.93h-.8V27.56a1,1,0,0,0,.18.59,9,9,0,0,0,.8,1.07l.23.28h-6.8l.29-.39a4.33,4.33,0,0,0,.53-.91,1.38,1.38,0,0,0,.13-.6V13.49C95.18,12.75,94.45,12.33,94,11.88Z"/><path class="cls-5" d="M57.15,11.79h5.49L67.25,25l3.91-10.94a1.24,1.24,0,0,0-.16-.93c-.21-.45-.44-.88-.66-1.32h4.1c-.24.89-.6,1.87-.91,2.77L68.23,30a8.68,8.68,0,0,1-4.3-2,7.45,7.45,0,0,1-1.73-3.11L57.77,13.1a10.45,10.45,0,0,0-.62-1.31ZM79.07,18v9.44c0,.38.09.45.33.76l1.08,1.41H75.31l.87-1.33a1.4,1.4,0,0,0,.32-.92V14.15l-1.45-2.36h5.36L89.08,23v-8.9a1.43,1.43,0,0,0-.31-.93c-.29-.45-.6-.88-.89-1.32H93L92,13.22c-.24.3-.33.37-.33.76V30a7.31,7.31,0,0,1-5.39-2.81Z"/>
</svg>