 <svg
                                            xmlns="http://www.w3.org/2000/svg"
                                            data-automation-id="svg-icon"
                                            width="24"
                                            height="24"
                                            fill="none"
                                            viewBox="0 0 24 24"
                                            da-id="svg-icon"
                                        >
                                            <path
                                                fill="#0D1011"
                                                fillRule="evenodd"
                                                d="M15.556 2.884a2.75 2.75 0 0 1 3.889 0l1.671 1.671a2.75 2.75 0 0 1 0 3.89l-12.75 12.75A2.75 2.75 0 0 1 6.422 22H2.75a.75.75 0 0 1-.75-.75v-3.672c0-.729.29-1.428.805-1.944zm2.828 1.06a1.25 1.25 0 0 0-1.768 0L14.311 6.25l3.439 3.44 2.305-2.306a1.25 1.25 0 0 0 0-1.768zm-1.695 6.806L13.25 7.31l-9.384 9.385a1.25 1.25 0 0 0-.366.883V20.5h2.922c.331 0 .649-.132.883-.366z"
                                                clipRule="evenodd"
                                            ></path>
                                        </svg>