<svg
                            xmlns="http://www.w3.org/2000/svg"
                            data-automation-id="svg-icon"
                            width="24"
                            height="100%"
                            fill="none"
                            viewBox="0 0 24 24"
                            da-id="svg-icon"
                        >
                            <path
                                fill="#000"
                                fillRule="evenodd"
                                d="M14.998 3.85a5.15 5.15 0 0 0-4.929 6.646c.09.3.01.626-.212.848l-5.965 5.964a.15.15 0 0 0-.044.106V20c0 .083.068.15.15.15h2.15V19c0-.47.381-.85.85-.85h1.15V17c0-.47.381-.85.85-.85h1.648l2.008-2.008a.85.85 0 0 1 .848-.212 5.15 5.15 0 1 0 1.496-10.08M8.148 9a6.85 6.85 0 1 1 5.364 6.688L11.6 17.601a.85.85 0 0 1-.602.249h-1.15V19c0 .47-.38.85-.85.85h-1.15V21c0 .47-.38.85-.85.85h-3A1.85 1.85 0 0 1 2.148 20v-2.586c0-.49.195-.961.542-1.308l5.62-5.62A7 7 0 0 1 8.148 9m6-2c0-.47.381-.85.85-.85A2.85 2.85 0 0 1 17.848 9a.85.85 0 1 1-1.7 0 1.15 1.15 0 0 0-1.15-1.15.85.85 0 0 1-.85-.85"
                                clipRule="evenodd"
                            ></path>
                        </svg>