<svg width="24" height="24" viewBox="0 0 16 16" fill="none" xmlns="http://www.w3.org/2000/svg" data-automation-id="svg-icon" class="svg-icon-wrapper styles_svg-container-override__mjHW5" da-id="svg-icon"><path fill-rule="evenodd" clip-rule="evenodd" d="M7.28496 2.68283C7.60797 2.13958 8.39451 2.13958 8.71752 2.68283L13.7068 11.074C14.0371 11.6294 13.6368 12.3332 12.9906 12.3332H3.01192C2.36566 12.3332 1.96535 11.6294 2.29564 11.074L7.28496 2.68283ZM14.5664 10.5629L9.57705 2.17175C8.86643 0.976602 7.13605 0.976605 6.42542 2.17175L1.43611 10.5629C0.709471 11.7849 1.59014 13.3332 3.01192 13.3332H12.9906C14.4123 13.3332 15.293 11.7849 14.5664 10.5629ZM8.50124 5.83318C8.50124 5.55704 8.27738 5.33318 8.00124 5.33318C7.7251 5.33318 7.50124 5.55704 7.50124 5.83318V8.49985C7.50124 8.77599 7.7251 8.99985 8.00124 8.99985C8.27738 8.99985 8.50124 8.77599 8.50124 8.49985V5.83318ZM7.9987 10.9998C8.36689 10.9998 8.66536 10.7014 8.66536 10.3332C8.66536 9.96498 8.36689 9.6665 7.9987 9.6665C7.63051 9.6665 7.33203 9.96498 7.33203 10.3332C7.33203 10.7014 7.63051 10.9998 7.9987 10.9998Z" fill="#fe0000ff"></path></svg>