<svg
                        xmlns="http://www.w3.org/2000/svg"
                        data-automation-id="svg-icon"
                        width="24"
                        height="24"
                        fill="none"
                        viewBox="0 0 24 24"
                        da-id="svg-icon"
                    >
                        <path
                            fill="#000"
                            d="M6.382 4.76c.28 0 .53-.08.73-.25.21-.17.31-.41.31-.72a.86.86 0 0 0-.25-.62c-.16-.17-.38-.26-.66-.26-.19 0-.34.03-.47.08-.12.05-.22.12-.29.21s-.14.2-.2.34-.12.27-.17.39c-.03.07-.09.12-.17.15-.08.04-.17.06-.28.06a.48.48 0 0 1-.34-.15.56.56 0 0 1-.15-.41c0-.17.05-.33.14-.51.1-.18.24-.35.43-.51s.42-.29.7-.39q.42-.15.93-.15c.3 0 .57.04.82.13.25.08.46.2.64.35.18.16.32.34.41.54s.14.43.14.66c0 .31-.07.58-.2.8s-.32.44-.57.65c.24.13.44.28.61.45s.29.35.38.56q.12.3.12.66c0 .28-.06.56-.17.82s-.28.5-.5.71q-.33.315-.78.48c-.3.11-.63.17-1 .17s-.7-.07-1-.2c-.29-.13-.54-.3-.73-.5s-.33-.41-.43-.62-.14-.39-.14-.53c0-.18.06-.32.17-.43a.62.62 0 0 1 .44-.17c.09 0 .17.03.25.08s.13.11.16.18q.24.645.51.96c.19.21.44.31.78.31.19 0 .38-.05.55-.14.18-.1.33-.24.44-.42.12-.19.18-.4.18-.65 0-.36-.1-.65-.3-.85-.2-.21-.47-.31-.82-.31-.06 0-.16 0-.29.02-.13.01-.21.02-.25.02-.17 0-.3-.04-.39-.13a.5.5 0 0 1-.14-.36c0-.15.06-.27.17-.36s.28-.14.5-.14h.19zm4.758.43c.21-.25.44-.44.69-.56s.52-.18.83-.18.56.06.81.17.47.27.65.47c.19.2.33.44.44.72q.15.42.15.87c0 .44-.1.84-.3 1.19-.2.36-.48.64-.83.84s-.76.3-1.21.3c-.52 0-.97-.13-1.34-.38-.38-.25-.67-.63-.87-1.13q-.3-.75-.3-1.83c0-.59.06-1.11.18-1.58.12-.46.29-.85.52-1.15s.5-.53.82-.69.69-.23 1.1-.23.74.08 1.04.23c.3.16.53.35.68.58s.23.45.23.66c0 .13-.05.24-.14.35-.1.1-.22.15-.37.15a.6.6 0 0 1-.36-.12.8.8 0 0 1-.25-.34.9.9 0 0 0-.34-.45.9.9 0 0 0-.54-.17c-.16 0-.33.05-.49.14s-.3.22-.41.38c-.23.33-.36.92-.4 1.76zm1.25 2.89c.31 0 .57-.13.77-.38.2-.26.31-.59.31-1.01 0-.28-.05-.53-.14-.73-.1-.21-.23-.36-.39-.47a1 1 0 0 0-.55-.16c-.2 0-.38.05-.55.15q-.255.15-.42.45c-.11.19-.16.42-.16.68 0 .42.11.77.32 1.05q.33.42.81.42m7.861-2.55c0 .51-.03.95-.09 1.31-.06.37-.18.7-.34 1-.21.37-.48.65-.81.85q-.495.3-1.11.3c-.47 0-.89-.13-1.26-.4q-.555-.405-.84-1.11c-.1-.26-.17-.54-.21-.85q-.06-.465-.06-1.02c0-.47.02-.89.07-1.27s.13-.7.23-.97c.18-.45.45-.79.79-1.02.35-.24.76-.35 1.25-.35.32 0 .61.05.87.16.26.1.49.25.68.46.2.2.36.45.5.74.23.51.35 1.24.35 2.18zm-1.27-.09c0-.57-.03-1.03-.1-1.39s-.18-.64-.34-.82c-.16-.19-.38-.28-.67-.28-.41 0-.69.21-.85.62s-.24 1.05-.24 1.91c0 .58.03 1.06.1 1.44s.18.66.34.85.38.28.65.28.51-.1.67-.3.27-.48.34-.85c.06-.37.1-.85.1-1.45z"
                        ></path>
                        <path
                            fill="#0D1011"
                            fillRule="evenodd"
                            d="M5.488 10.88C7.42 10.108 9.873 10 12 10s4.58.107 6.512.88c.978.393 1.858.968 2.493 1.82.64.86.995 1.95.995 3.3 0 1.405-.34 2.884-1.126 4.032-.802 1.171-2.053 1.968-3.76 1.968-.844 0-1.506-.191-2.055-.495-.539-.3-.939-.692-1.268-1.037l-.136-.143c-.605-.638-.952-1.004-1.655-1.004s-1.05.366-1.655 1.004l-.136.143c-.33.345-.73.738-1.268 1.037-.549.304-1.21.495-2.055.495-1.702 0-2.954-.778-3.759-1.945C2.34 18.913 2 17.432 2 16c0-1.35.354-2.44.995-3.3.635-.852 1.515-1.427 2.493-1.82m-1.501 2.602c-.452.606-.737 1.412-.737 2.518 0 1.247.3 2.444.897 3.311.58.842 1.459 1.403 2.74 1.403.647 0 1.104-.143 1.46-.341.367-.204.66-.48.97-.806l.161-.171c.559-.6 1.269-1.36 2.522-1.36s1.963.76 2.522 1.36l.161.171c.31.325.603.602.97.806.356.198.813.341 1.46.341 1.276 0 2.156-.571 2.739-1.423.6-.876.898-2.075.898-3.291 0-1.106-.285-1.912-.737-2.518-.457-.613-1.12-1.07-1.954-1.403-1.69-.677-3.925-.793-6.059-.793s-4.37.116-6.059.793c-.833.334-1.497.79-1.954 1.403"
                            clipRule="evenodd"
                        ></path>
                    </svg>