<svg
                            xmlns="http://www.w3.org/2000/svg"
                            width="24"
                            height="24"
                            viewBox="0 0 24 24"
                            className="post-form__option-icon"
                        >
                            <path
                                fill="#0D1011"
                                fillRule="evenodd"
                                d="M4.623 3.43c-.659 0-1.192.534-1.192 1.193v6.115c0 .316.125.62.349.843l7.64 7.64c.465.465 1.22.465 1.685 0l6.115-6.116a1.19 1.19 0 0 0 0-1.686l-7.64-7.64a1.2 1.2 0 0 0-.842-.348zM2 4.624A2.623 2.623 0 0 1 4.623 2h6.115a2.62 2.62 0 0 1 1.854.768l7.64 7.64a2.623 2.623 0 0 1 0 3.709l-6.115 6.115a2.623 2.623 0 0 1-3.71 0l-7.639-7.64A2.62 2.62 0 0 1 2 10.738zm3.815 2.623a1.43 1.43 0 1 1 2.861 0 1.43 1.43 0 0 1-2.861 0"
                                clipRule="evenodd"
                            />
                        </svg>