<svg xmlns="http://www.w3.org/2000/svg" data-automation-id="svg-icon" width="24" height="100%" fill="none" viewBox="0 0 24 24" class="svg-icon-wrapper svg-container-override" da-id="svg-icon"><path fill="#000" fill-rule="evenodd" d="M8.398 9.24c0-3.78 3.06-6.84 6.84-6.84s6.84 3.06 6.84 6.84-3.06 6.84-6.84 6.84c-.48 0-1.02-.06-1.5-.18l-1.92 1.92a.77.77 0 0 1-.6.24h-1.14v1.14c0 .48-.36.84-.84.84h-1.14v1.14c0 .48-.36.84-.84.84h-3a1.87 1.87 0 0 1-1.86-1.86v-2.58c0-.48.18-.96.54-1.32l5.64-5.64c-.12-.36-.18-.84-.18-1.38m6-1.98c0-.48.36-.84.84-.84a2.88 2.88 0 0 1 2.88 2.88c0 .48-.36.84-.84.84a.82.82 0 0 1-.84-.84c0-.66-.54-1.14-1.14-1.14-.54-.06-.9-.42-.9-.9" clip-rule="evenodd"></path></svg>