<svg
                        xmlns="http://www.w3.org/2000/svg"
                        data-automation-id="svg-icon"
                        width="24"
                        height="24"
                        fill="none"
                        viewBox="0 0 24 24"
                        da-id="svg-icon"
                    >
                        <path
                            fill="#0D1011"
                            fillRule="evenodd"
                            d="M3 5.75A2.75 2.75 0 0 1 5.75 3h12.5A2.75 2.75 0 0 1 21 5.75v12.5A2.75 2.75 0 0 1 18.25 21H5.75A2.75 2.75 0 0 1 3 18.25zM5.75 4.5c-.69 0-1.25.56-1.25 1.25v7.15l1.912-1.43.017-.012a2.75 2.75 0 0 1 3.54.417c1.475 1.588 3.012 2.829 5.031 2.829 1.93 0 3.188-.692 4.47-1.973l.03-.03V5.75c0-.69-.56-1.25-1.25-1.25zM19.5 14.705c-1.23.945-2.625 1.499-4.5 1.499-2.696 0-4.619-1.681-6.13-3.308a1.25 1.25 0 0 0-1.594-.2L4.5 14.773v3.477c0 .69.56 1.25 1.25 1.25h12.5c.69 0 1.25-.56 1.25-1.25zM15.25 7.5a1.25 1.25 0 1 0 0 2.5 1.25 1.25 0 0 0 0-2.5M12.5 8.75a2.75 2.75 0 1 1 5.5 0 2.75 2.75 0 0 1-5.5 0"
                            clipRule="evenodd"
                        ></path>
                    </svg>